{
  "accessors": [
    {
      "bufferView": 2,
      "componentType": 5126,
      "count": 19712,
      "max": [
        2.180690050125122,
        9.405850410461426,
        0.6669529676437378
      ],
      "min": [
        -8.989405632019043,
        -10.301552772521973,
        -1.493484616279602
      ],
      "type": "VEC3"
    },
    {
      "bufferView": 2,
      "byteOffset": 236544,
      "componentType": 5126,
      "count": 19712,
      "max": [
        0.9999461770057678,
        0.9997684359550476,
        0.9987425208091736
      ],
      "min": [
        -0.9999462962150574,
        -0.9997714757919312,
        -0.9998394846916199
      ],
      "type": "VEC3"
    },
    {
      "bufferView": 1,
      "componentType": 5126,
      "count": 19712,
      "max": [
        0.0,
        0.0
      ],
      "min": [
        0.0,
        0.0
      ],
      "type": "VEC2"
    },
    {
      "bufferView": 0,
      "componentType": 5125,
      "count": 29568,
      "type": "SCALAR"
    },
    {
      "bufferView": 2,
      "byteOffset": 473088,
      "componentType": 5126,
      "count": 52198,
      "max": [
        3.7130696773529053,
        10.744590759277344,
        0.7414320707321167
      ],
      "min": [
        -10.488340377807617,
        -11.830933570861816,
        -39.36893081665039
      ],
      "type": "VEC3"
    },
    {
      "bufferView": 2,
      "byteOffset": 1099464,
      "componentType": 5126,
      "count": 52198,
      "max": [
        0.9999961256980896,
        1.0,
        1.0
      ],
      "min": [
        -0.9999992847442627,
        -0.9999875426292419,
        -0.9999974966049194
      ],
      "type": "VEC3"
    },
    {
      "bufferView": 1,
      "byteOffset": 157696,
      "componentType": 5126,
      "count": 52198,
      "max": [
        0.8750001788139343,
        1.0000001192092896
      ],
      "min": [
        0.1249999850988388,
        0.2499999701976776
      ],
      "type": "VEC2"
    },
    {
      "bufferView": 0,
      "byteOffset": 118272,
      "componentType": 5125,
      "count": 196608,
      "type": "SCALAR"
    },
    {
      "bufferView": 2,
      "byteOffset": 1725840,
      "componentType": 5126,
      "count": 65532,
      "max": [
        3.3536577224731445,
        9.388572692871094,
        -4.0267839431762695
      ],
      "min": [
        3.167515993118286,
        7.517611026763916,
        -7.195279121398926
      ],
      "type": "VEC3"
    },
    {
      "bufferView": 2,
      "byteOffset": 2512224,
      "componentType": 5126,
      "count": 65532,
      "max": [
        0.9999983906745911,
        0.9998829960823059,
        0.9999051094055176
      ],
      "min": [
        -0.9999476671218872,
        -0.9999648332595825,
        -0.9998923540115356
      ],
      "type": "VEC3"
    },
    {
      "bufferView": 1,
      "byteOffset": 575280,
      "componentType": 5126,
      "count": 65532,
      "max": [
        1.0000001192092896,
        1.000000238418579
      ],
      "min": [
        0.0,
        0.0
      ],
      "type": "VEC2"
    },
    {
      "bufferView": 0,
      "byteOffset": 904704,
      "componentType": 5125,
      "count": 98298,
      "type": "SCALAR"
    },
    {
      "bufferView": 2,
      "byteOffset": 3298608,
      "componentType": 5126,
      "count": 65532,
      "max": [
        3.3536620140075684,
        9.021039009094238,
        -5.397096157073975
      ],
      "min": [
        3.205251693725586,
        7.517049789428711,
        -7.202336311340332
      ],
      "type": "VEC3"
    },
    {
      "bufferView": 2,
      "byteOffset": 4084992,
      "componentType": 5126,
      "count": 65532,
      "max": [
        0.9999999403953552,
        0.9999205470085144,
        0.02722552977502346
      ],
      "min": [
        -0.9991244077682495,
        -0.999988317489624,
        -0.9999977350234985
      ],
      "type": "VEC3"
    },
    {
      "bufferView": 1,
      "byteOffset": 1099536,
      "componentType": 5126,
      "count": 65532,
      "max": [
        0.8750004172325134,
        0.6693347692489624
      ],
      "min": [
        0.1250002533197403,
        0.08068861812353134
      ],
      "type": "VEC2"
    },
    {
      "bufferView": 0,
      "byteOffset": 1297896,
      "componentType": 5125,
      "count": 98298,
      "type": "SCALAR"
    },
    {
      "bufferView": 2,
      "byteOffset": 4871376,
      "componentType": 5126,
      "count": 65532,
      "max": [
        3.318080186843872,
        9.021584510803223,
        -4.569407939910889
      ],
      "min": [
        3.1707115173339844,
        7.515711784362793,
        -5.866471767425537
      ],
      "type": "VEC3"
    },
    {
      "bufferView": 2,
      "byteOffset": 5657760,
      "componentType": 5126,
      "count": 65532,
      "max": [
        0.9999351501464844,
        0.9999647736549377,
        0.9998921751976013
      ],
      "min": [
        -1.0,
        -0.9999937415122986,
        -0.08556929975748062
      ],
      "type": "VEC3"
    },
    {
      "bufferView": 1,
      "byteOffset": 1623792,
      "componentType": 5126,
      "count": 65532,
      "max": [
        0.8750004172325134,
        1.000000238418579
      ],
      "min": [
        0.125,
        -4.831235855817795e-09
      ],
      "type": "VEC2"
    },
    {
      "bufferView": 0,
      "byteOffset": 1691088,
      "componentType": 5125,
      "count": 98298,
      "type": "SCALAR"
    },
    {
      "bufferView": 2,
      "byteOffset": 6444144,
      "componentType": 5126,
      "count": 65532,
      "max": [
        3.308741331100464,
        9.125173568725586,
        -0.1816544234752655
      ],
      "min": [
        -10.093025207519531,
        7.443175315856934,
        -5.428104400634766
      ],
      "type": "VEC3"
    },
    {
      "bufferView": 2,
      "byteOffset": 7230528,
      "componentType": 5126,
      "count": 65532,
      "max": [
        0.999870777130127,
        0.9999781847000122,
        0.9998835921287537
      ],
      "min": [
        -0.9999994039535522,
        -0.9999932050704956,
        -0.9990409016609192
      ],
      "type": "VEC3"
    },
    {
      "bufferView": 1,
      "byteOffset": 2148048,
      "componentType": 5126,
      "count": 65532,
      "max": [
        0.8750004172325134,
        1.000000238418579
      ],
      "min": [
        0.125,
        -4.831235855817795e-09
      ],
      "type": "VEC2"
    },
    {
      "bufferView": 0,
      "byteOffset": 2084280,
      "componentType": 5125,
      "count": 170022,
      "type": "SCALAR"
    },
    {
      "bufferView": 2,
      "byteOffset": 8016912,
      "componentType": 5126,
      "count": 65532,
      "max": [
        -9.4327392578125,
        9.542181015014648,
        -0.20657111704349518
      ],
      "min": [
        -10.239665031433105,
        6.971805572509766,
        -3.8821747303009033
      ],
      "type": "VEC3"
    },
    {
      "bufferView": 2,
      "byteOffset": 8803296,
      "componentType": 5126,
      "count": 65532,
      "max": [
        1.0,
        0.9999986290931702,
        0.9999371767044067
      ],
      "min": [
        -1.0,
        -0.9999940395355225,
        -0.9999998807907104
      ],
      "type": "VEC3"
    },
    {
      "bufferView": 1,
      "byteOffset": 2672304,
      "componentType": 5126,
      "count": 65532,
      "max": [
        0.6301417350769043,
        0.7500045299530029
      ],
      "min": [
        0.3739718496799469,
        0.023215746507048607
      ],
      "type": "VEC2"
    },
    {
      "bufferView": 0,
      "byteOffset": 2764368,
      "componentType": 5125,
      "count": 377871,
      "type": "SCALAR"
    },
    {
      "bufferView": 2,
      "byteOffset": 9589680,
      "componentType": 5126,
      "count": 65532,
      "max": [
        3.3712174892425537,
        9.542314529418945,
        -0.09677737951278687
      ],
      "min": [
        -10.24303150177002,
        6.972829818725586,
        -3.9593939781188965
      ],
      "type": "VEC3"
    },
    {
      "bufferView": 2,
      "byteOffset": 10376064,
      "componentType": 5126,
      "count": 65532,
      "max": [
        1.0,
        0.9999932646751404,
        0.9999945759773254
      ],
      "min": [
        -0.9999988675117493,
        -0.9999966621398926,
        -0.9336388111114502
      ],
      "type": "VEC3"
    },
    {
      "bufferView": 1,
      "byteOffset": 3196560,
      "componentType": 5126,
      "count": 65532,
      "max": [
        0.8750002384185791,
        1.000000238418579
      ],
      "min": [
        0.1250000149011612,
        0.0
      ],
      "type": "VEC2"
    },
    {
      "bufferView": 0,
      "byteOffset": 4275852,
      "componentType": 5125,
      "count": 377886,
      "type": "SCALAR"
    },
    {
      "bufferView": 2,
      "byteOffset": 11162448,
      "componentType": 5126,
      "count": 65532,
      "max": [
        3.467761993408203,
        9.542227745056152,
        -0.3411567807197571
      ],
      "min": [
        2.666616678237915,
        6.970743179321289,
        -3.9946799278259277
      ],
      "type": "VEC3"
    },
    {
      "bufferView": 2,
      "byteOffset": 11948832,
      "componentType": 5126,
      "count": 65532,
      "max": [
        1.0,
        0.9999963641166687,
        0.9999955296516418
      ],
      "min": [
        -1.0,
        -0.9999986290931702,
        -0.9995759129524231
      ],
      "type": "VEC3"
    },
    {
      "bufferView": 1,
      "byteOffset": 3720816,
      "componentType": 5126,
      "count": 65532,
      "max": [
        0.6453616619110107,
        0.7740135788917542
      ],
      "min": [
        0.37439191341400146,
        0.24047282338142395
      ],
      "type": "VEC2"
    },
    {
      "bufferView": 0,
      "byteOffset": 5787396,
      "componentType": 5125,
      "count": 377151,
      "type": "SCALAR"
    },
    {
      "bufferView": 2,
      "byteOffset": 12735216,
      "componentType": 5126,
      "count": 65532,
      "max": [
        3.4675426483154297,
        9.542311668395996,
        -0.4245032072067261
      ],
      "min": [
        -10.068530082702637,
        6.9719343185424805,
        -4.572910308837891
      ],
      "type": "VEC3"
    },
    {
      "bufferView": 2,
      "byteOffset": 13521600,
      "componentType": 5126,
      "count": 65532,
      "max": [
        1.0,
        0.9999967217445374,
        1.0
      ],
      "min": [
        -0.9999996423721313,
        -0.9995404481887817,
        -0.9999951720237732
      ],
      "type": "VEC3"
    },
    {
      "bufferView": 1,
      "byteOffset": 4245072,
      "componentType": 5126,
      "count": 65532,
      "max": [
        0.8750001192092896,
        1.0000001192092896
      ],
      "min": [
        0.1250000149011612,
        0.0
      ],
      "type": "VEC2"
    },
    {
      "bufferView": 0,
      "byteOffset": 7296000,
      "componentType": 5125,
      "count": 319206,
      "type": "SCALAR"
    },
    {
      "bufferView": 2,
      "byteOffset": 14307984,
      "componentType": 5126,
      "count": 26376,
      "max": [
        -9.433000564575195,
        9.54220199584961,
        -0.18157701194286346
      ],
      "min": [
        -10.242441177368164,
        6.970747470855713,
        -3.884948492050171
      ],
      "type": "VEC3"
    },
    {
      "bufferView": 2,
      "byteOffset": 14624496,
      "componentType": 5126,
      "count": 26376,
      "max": [
        0.9999076724052429,
        0.9999978542327881,
        0.9999574422836304
      ],
      "min": [
        -1.0,
        -0.9999546408653259,
        -0.9999927878379822
      ],
      "type": "VEC3"
    },
    {
      "bufferView": 1,
      "byteOffset": 4769328,
      "componentType": 5126,
      "count": 26376,
      "max": [
        0.6478896737098694,
        1.000000238418579
      ],
      "min": [
        0.1250000149011612,
        0.015487171709537506
      ],
      "type": "VEC2"
    },
    {
      "bufferView": 0,
      "byteOffset": 8572824,
      "componentType": 5125,
      "count": 139866,
      "type": "SCALAR"
    }
  ],
  "asset": {
    "extras": {
      "author": "donystark (https://sketchfab.com/donystark)",
      "license": "CC-BY-4.0 (http://creativecommons.org/licenses/by/4.0/)",
      "source": "https://sketchfab.com/3d-models/lunettes-a-montures-maronne-38c5d0da8276449583ca1ae9d3e3045b",
      "title": "Lunettes à montures maronne"
    },
    "generator": "Sketchfab-14.49.0",
    "version": "2.0"
  },
  "bufferViews": [
    {
      "buffer": 0,
      "byteLength": 9132288,
      "name": "floatBufferViews",
      "target": 34963
    },
    {
      "buffer": 0,
      "byteLength": 4980336,
      "byteOffset": 9132288,
      "byteStride": 8,
      "name": "floatBufferViews",
      "target": 34962
    },
    {
      "buffer": 0,
      "byteLength": 14941008,
      "byteOffset": 14112624,
      "byteStride": 12,
      "name": "floatBufferViews",
      "target": 34962
    }
  ],
  "buffers": [
    {
      "byteLength": 29053632,
      "uri": "scene.bin"
    }
  ],
  "materials": [
    {
      "alphaMode": "BLEND",
      "doubleSided": true,
      "name": "Matriau.002",
      "pbrMetallicRoughness": {
        "baseColorFactor": [
          0.8,
          0.8,
          0.8,
          0.10819080591483707
        ],
        "metallicFactor": 0.0,
        "roughnessFactor": 0.0
      }
    },
    {
      "doubleSided": true,
      "name": "Plasique",
      "pbrMetallicRoughness": {
        "baseColorFactor": [
          0.00636935,
          0.00158106,
          0.0,
          1.0
        ],
        "metallicFactor": 0.0,
        "roughnessFactor": 0.1630481159561629
      }
    },
    {
      "doubleSided": true,
      "name": "Metal",
      "pbrMetallicRoughness": {
        "baseColorFactor": [
          0.8,
          0.8,
          0.8,
          1.0
        ],
        "roughnessFactor": 0.35
      }
    }
  ],
  "meshes": [
    {
      "name": "Object_0",
      "primitives": [
        {
          "attributes": {
            "NORMAL": 1,
            "POSITION": 0,
            "TEXCOORD_0": 2
          },
          "indices": 3,
          "material": 0,
          "mode": 4
        }
      ]
    },
    {
      "name": "Object_1",
      "primitives": [
        {
          "attributes": {
            "NORMAL": 5,
            "POSITION": 4,
            "TEXCOORD_0": 6
          },
          "indices": 7,
          "material": 1,
          "mode": 4
        }
      ]
    },
    {
      "name": "Object_2",
      "primitives": [
        {
          "attributes": {
            "NORMAL": 9,
            "POSITION": 8,
            "TEXCOORD_0": 10
          },
          "indices": 11,
          "material": 2,
          "mode": 4
        }
      ]
    },
    {
      "name": "Object_3",
      "primitives": [
        {
          "attributes": {
            "NORMAL": 13,
            "POSITION": 12,
            "TEXCOORD_0": 14
          },
          "indices": 15,
          "material": 2,
          "mode": 4
        }
      ]
    },
    {
      "name": "Object_4",
      "primitives": [
        {
          "attributes": {
            "NORMAL": 17,
            "POSITION": 16,
            "TEXCOORD_0": 18
          },
          "indices": 19,
          "material": 2,
          "mode": 4
        }
      ]
    },
    {
      "name": "Object_5",
      "primitives": [
        {
          "attributes": {
            "NORMAL": 21,
            "POSITION": 20,
            "TEXCOORD_0": 22
          },
          "indices": 23,
          "material": 2,
          "mode": 4
        }
      ]
    },
    {
      "name": "Object_6",
      "primitives": [
        {
          "attributes": {
            "NORMAL": 25,
            "POSITION": 24,
            "TEXCOORD_0": 26
          },
          "indices": 27,
          "material": 2,
          "mode": 4
        }
      ]
    },
    {
      "name": "Object_7",
      "primitives": [
        {
          "attributes": {
            "NORMAL": 29,
            "POSITION": 28,
            "TEXCOORD_0": 30
          },
          "indices": 31,
          "material": 2,
          "mode": 4
        }
      ]
    },
    {
      "name": "Object_8",
      "primitives": [
        {
          "attributes": {
            "NORMAL": 33,
            "POSITION": 32,
            "TEXCOORD_0": 34
          },
          "indices": 35,
          "material": 2,
          "mode": 4
        }
      ]
    },
    {
      "name": "Object_9",
      "primitives": [
        {
          "attributes": {
            "NORMAL": 37,
            "POSITION": 36,
            "TEXCOORD_0": 38
          },
          "indices": 39,
          "material": 2,
          "mode": 4
        }
      ]
    },
    {
      "name": "Object_10",
      "primitives": [
        {
          "attributes": {
            "NORMAL": 41,
            "POSITION": 40,
            "TEXCOORD_0": 42
          },
          "indices": 43,
          "material": 2,
          "mode": 4
        }
      ]
    }
  ],
  "nodes": [
    {
      "children": [
        1
      ],
      "matrix": [
        -0.821173906326294,
        1.2671598332545552e-16,
        -0.5706780552864075,
        0.0,
        -0.5706780552864075,
        -1.823372356049666e-16,
        0.821173906326294,
        0.0,
        0.0,
        1.0,
        2.220446049250313e-16,
        0.0,
        0.0,
        0.0,
        0.0,
        1.0
      ],
      "name": "Sketchfab_model"
    },
    {
      "children": [
        2
      ],
      "name": "root"
    },
    {
      "children": [
        3
      ],
      "matrix": [
        1.0,
        0.0,
        0.0,
        0.0,
        0.0,
        2.220446049250313e-16,
        1.0,
        0.0,
        0.0,
        -1.0,
        2.220446049250313e-16,
        0.0,
        0.0,
        0.0,
        0.0,
        1.0
      ],
      "name": "GLTF_SceneRootNode"
    },
    {
      "children": [
        4,
        5,
        6,
        7,
        8,
        9,
        10,
        11,
        12,
        13,
        14
      ],
      "matrix": [
        1.0350383520126343,
        0.0,
        0.0,
        0.0,
        0.0,
        0.18066439652135782,
        -0.0014201670330024937,
        0.0,
        0.0,
        0.002663594878302762,
        0.33884518516710493,
        0.0,
        3.5236403942108154,
        2.2297916412353516,
        0.3309701681137085,
        1.0
      ],
      "name": "Cadre.001_0"
    },
    {
      "mesh": 0,
      "name": "Object_4"
    },
    {
      "mesh": 1,
      "name": "Object_5"
    },
    {
      "mesh": 2,
      "name": "Object_6"
    },
    {
      "mesh": 3,
      "name": "Object_7"
    },
    {
      "mesh": 4,
      "name": "Object_8"
    },
    {
      "mesh": 5,
      "name": "Object_9"
    },
    {
      "mesh": 6,
      "name": "Object_10"
    },
    {
      "mesh": 7,
      "name": "Object_11"
    },
    {
      "mesh": 8,
      "name": "Object_12"
    },
    {
      "mesh": 9,
      "name": "Object_13"
    },
    {
      "mesh": 10,
      "name": "Object_14"
    }
  ],
  "scene": 0,
  "scenes": [
    {
      "name": "Sketchfab_Scene",
      "nodes": [
        0
      ]
    }
  ]
}
